<?xml version="1.0" standalone="no"?>
<!DOCTYPE svg PUBLIC "-//W3C//DTD SVG 20010904//EN"
 "http://www.w3.org/TR/2001/REC-SVG-20010904/DTD/svg10.dtd">
<svg version="1.0" xmlns="http://www.w3.org/2000/svg"
 width="50px" height="50px" viewBox="0 0 1049 1490"
 preserveAspectRatio="xMidYMid meet">
<metadata>
Created by potrace 1.15, written by Peter Selinger 2001-2017
</metadata>
<g transform="translate(0.000000,1280.000000) scale(0.100000,-0.100000)"
fill="#00000" stroke="none">
<path d="M5613 12790 c-211 -27 -393 -79 -638 -182 -311 -130 -403 -159 -520
-165 -114 -5 -117 -4 -251 110 -235 200 -469 242 -774 140 -67 -22 -236 -101
-470 -220 -201 -102 -368 -188 -372 -192 -10 -9 103 -230 199 -389 96 -160
160 -256 339 -507 205 -289 358 -551 530 -910 275 -574 347 -711 482 -918 35
-54 65 -103 66 -110 5 -27 28 -88 33 -84 2 3 -3 22 -12 43 -19 48 -12 40 77
-76 83 -109 84 -114 47 -141 -17 -12 -31 -20 -33 -18 -2 2 -11 25 -21 52 -10
26 -20 46 -22 44 -2 -3 6 -29 17 -58 l22 -54 -24 -20 c-41 -35 -76 -89 -83
-127 -6 -32 -1 -49 40 -124 25 -47 45 -87 43 -89 -5 -5 -452 -93 -468 -92 -29
1 -295 -68 -305 -79 -5 -6 -64 -28 -130 -49 -220 -68 -412 -153 -546 -242 -85
-55 -250 -227 -378 -392 -152 -196 -641 -882 -703 -986 -160 -269 -343 -739
-407 -1045 -44 -214 -46 -235 -41 -505 14 -713 5 -1085 -40 -1705 -53 -725
-101 -1076 -190 -1375 -48 -165 -79 -301 -95 -431 -27 -210 -60 -351 -89 -387
-15 -18 -58 -73 -95 -123 -119 -157 -242 -278 -376 -367 -245 -164 -398 -309
-421 -401 -8 -33 17 -73 54 -87 49 -19 243 -49 512 -79 146 -17 276 -32 290
-35 14 -2 90 -9 170 -15 80 -6 188 -15 240 -20 52 -5 147 -14 210 -20 226 -22
421 -45 840 -100 80 -10 172 -21 205 -25 60 -7 425 -57 675 -94 74 -11 187
-25 250 -30 63 -6 162 -15 220 -21 99 -9 183 -16 495 -40 474 -36 753 -44
1425 -44 598 1 723 4 985 22 492 36 988 87 1345 141 36 5 128 19 205 30 77 12
196 30 265 41 336 54 642 93 820 104 939 61 1230 119 1230 246 0 44 -50 100
-188 213 -123 100 -135 113 -228 249 -103 152 -203 286 -301 406 -48 58 -74
105 -126 225 -69 160 -107 275 -107 323 -1 16 -19 92 -41 169 -53 186 -97 388
-163 750 -53 290 -72 403 -68 416 0 4 -8 82 -19 175 -29 247 -35 486 -16 674
23 226 31 566 18 765 -6 94 -16 251 -21 350 -19 308 -49 717 -61 795 -29 204
-122 506 -254 825 -150 362 -280 629 -393 805 l-48 75 66 65 c121 120 187 290
211 543 36 383 -121 633 -472 752 -57 20 -324 84 -356 85 -4 1 45 17 111 36
153 44 258 94 402 190 229 152 364 173 479 72 l44 -39 115 56 c93 44 119 61
132 87 35 67 -10 162 -140 297 -83 86 -113 101 -199 101 -121 0 -261 -62 -502
-222 -166 -111 -303 -181 -445 -226 -136 -44 -211 -58 -420 -82 -227 -26 -497
-65 -607 -89 -46 -10 -83 -17 -83 -15 0 1 82 48 183 105 279 156 402 245 548
395 206 214 325 440 304 580 -6 43 -15 56 -90 128 -111 109 -120 127 -89 191
21 46 127 166 161 183 15 8 89 63 163 122 74 59 196 147 270 195 191 124 223
157 198 210 -26 58 -141 90 -462 130 -315 38 -490 90 -626 186 -69 48 -111
102 -163 205 -155 309 -604 613 -1067 720 -119 28 -352 40 -477 24z m1802
-3920 c192 -19 342 -58 444 -116 62 -36 151 -131 185 -199 53 -104 45 -184
-26 -262 l-40 -43 -42 26 c-22 14 -120 64 -216 111 -155 76 -187 97 -279 176
-137 118 -242 195 -345 254 -47 26 -86 51 -86 56 0 11 278 9 405 -3z"/>
<path d="M4250 9315 c0 -5 5 -17 10 -25 5 -8 10 -10 10 -5 0 6 -5 17 -10 25
-5 8 -10 11 -10 5z"/>
</g>
</svg>
